<svg xmlns="http://www.w3.org/2000/svg" viewBox="0 0 20 20" fill="none">
  <path
    d="M6 2.5h6L16 6.5v9A2 2 0 0 1 14 17.5H6A2 2 0 0 1 4 15.5v-11A2 2 0 0 1 6 2.5Z"
    stroke="#5d5d5d"
    stroke-width="1.4"
    stroke-linejoin="round"
  />
  <path
    d="M12 2.7V6.5h3.7"
    stroke="#5d5d5d"
    stroke-width="1.4"
    stroke-linejoin="round"
  />
  <path
    d="M2,16V8H4l3,3,3-3h2v8H10V10.83l-3,3-3-3V16H2M16,8h3v4h2.5l-4,4.5-4-4.5H16Z"
    fill="#5d5d5d"
    transform="translate(4.4 5.2) scale(0.5)"
  />
</svg>
